# xmcd CD database file
#
# Track frame offsets:
#	150
#	17037
#	23557
#	40947
#	54890
#	73455
#	87907
#	101972
#	114460
#	129590
#	156240
#
# Disc length: 2387 seconds
#
# Revision: 1
# Processed by: cddbd v1.5.2PL0 Copyright (c) Steve Scherf et al.
# Submitted via: CDex 1.70beta3
#
DISCID=9009510b
DTITLE=銀星団 - SILVER STARS
DYEAR=1979
DGENRE=J-Metal
TTITLE0=金銭偽体　YOU
TTITLE1=好色一代男　SWEET CHANG
TTITLE2=地獄如愛妹　CRAZY AS HELL
TTITLE3=美女熱唇　LIPS
TTITLE4=美眉秀麗的大廃人　BEAUTIFUL LOOSER
TTITLE5=如何選択問題 WHICH DO YOU TAKE？
TTITLE6=乱調五番　TAKE FIVE
TTITLE7=暗躍人　EYE SPY
TTITLE8=黄悪徳　YELLOW VICE
TTITLE9=警邏徳　LAUGHIN' COP
TTITLE10=天空警鐘　WARNIG
EXTD=YEAR: 1979
EXTT0=
EXTT1=
EXTT2=
EXTT3=
EXTT4=
EXTT5=
EXTT6=
EXTT7=
EXTT8=
EXTT9=
EXTT10=
PLAYORDER=
